<?xml version="1.0" encoding="UTF-8"?>
<svg width="200px" height="82px" viewBox="0 0 200 82" version="1.1" xmlns="http://www.w3.org/2000/svg" xmlns:xlink="http://www.w3.org/1999/xlink">
    <title>Group 31</title>
    <g id="💻-Desktop" stroke="none" stroke-width="1" fill="none" fill-rule="evenodd">
        <g id="Group-31">
            <path d="M192.125816,73.9605151 C192.125816,73.2615844 192.333395,72.7462587 192.743849,72.3925406 C193.158419,72.0435152 193.783802,71.8698824 194.602063,71.8698824 L197.518754,71.8698824 C198.344072,71.8698824 198.967397,72.0435152 199.377263,72.3925406 C199.789775,72.7462587 200,73.2615844 200,73.9605151 L200,77.0524694 C200,77.7452408 199.789775,78.2658459 199.377263,78.6025527 C198.967397,78.9448323 198.344072,79.1202248 197.518754,79.1202248 L194.602063,79.1202248 C193.783802,79.1202248 193.158419,78.9448323 192.743849,78.5984466 C192.333395,78.2441418 192.125816,77.726763 192.125816,77.0351648 L192.125816,73.9605151 Z M197.518754,78.0153688 C197.905098,78.0153688 198.19912,77.9382313 198.392292,77.7816098 C198.593108,77.6182425 198.691605,77.3797907 198.691605,77.0524694 L198.691605,73.9605151 C198.691605,73.6326072 198.593108,73.386823 198.392292,73.228735 C198.19912,73.0595017 197.905098,72.9794311 197.518754,72.9794311 L194.602063,72.9794311 C194.216014,72.9794311 193.926403,73.0595017 193.72882,73.228735 C193.535354,73.386823 193.438915,73.6326072 193.438915,73.9605151 L193.438915,77.0351648 C193.438915,77.3627794 193.535354,77.6012312 193.72882,77.7672382 C193.926403,77.9332452 194.216014,78.0153688 194.602063,78.0153688 L197.518754,78.0153688 Z M190.667471,79.1202248 L189.35937,79.1202248 L189.35937,73.9605151 C189.35937,73.6326072 189.254993,73.386823 189.059174,73.228735 C188.866591,73.0595017 188.576686,72.9794311 188.190636,72.9794311 L184.110796,72.9794311 L184.110796,79.1202248 L182.793287,79.1202248 L182.793287,71.8698824 L188.190636,71.8698824 C189.009191,71.8698824 189.636926,72.0435152 190.04738,72.3925406 C190.459598,72.7462587 190.667471,73.2615844 190.667471,73.9605151 L190.667471,79.1202248 Z M174.194341,72.9794311 L174.194341,71.8698824 L178.8584,71.8698824 C179.679014,71.8698824 180.302045,72.0435152 180.709558,72.3925406 C181.129715,72.7462587 181.337294,73.2615844 181.337294,73.9605151 L181.337294,77.0351648 C181.337294,77.726763 181.129715,78.2441418 180.709558,78.5984466 C180.302045,78.9448323 179.679014,79.1202248 178.8584,79.1202248 L175.939945,79.1202248 C175.11698,79.1202248 174.493949,78.9448323 174.083201,78.5984466 C173.673041,78.2441418 173.46017,77.726763 173.46017,77.0351648 L173.46017,77.0061282 C173.46017,76.3224491 173.673041,75.7997909 174.083201,75.4627908 C174.493949,75.1208045 175.116686,74.9451186 175.939945,74.9451186 L179.147717,74.9451186 L179.147717,76.0502679 L175.939945,76.0502679 C175.5586,76.0502679 175.26105,76.1227127 175.068466,76.2910661 C174.867944,76.450034 174.773563,76.6911255 174.773563,77.0061282 L174.773563,77.0351648 C174.773563,77.3627794 174.867944,77.6012312 175.068466,77.7672382 C175.26105,77.9332452 175.5586,78.0153688 175.939945,78.0153688 L178.8584,78.0153688 C179.24445,78.0153688 179.534061,77.9332452 179.727527,77.7672382 C179.925404,77.6012312 180.021549,77.3627794 180.021549,77.0351648 L180.021549,73.9605151 C180.021549,73.6326072 179.925404,73.386823 179.727527,73.228735 C179.534061,73.0595017 179.24445,72.9794311 178.8584,72.9794311 L174.194341,72.9794311 Z M170.839264,79.1205181 L172.152363,79.1205181 L172.152363,68.7969925 L170.839264,68.7969925 L170.839264,79.1205181 Z M161.506735,73.9605151 C161.506735,73.2615844 161.713726,72.7462587 162.128884,72.3925406 C162.539632,72.0435152 163.160311,71.8698824 163.980336,71.8698824 L166.899085,71.8698824 C167.727343,71.8698824 168.34273,72.0435152 168.757888,72.3925406 C169.173634,72.7462587 169.37592,73.2615844 169.37592,73.9605151 L169.37592,77.0524694 C169.37592,77.7452408 169.173634,78.2658459 168.757888,78.6025527 C168.34273,78.9451255 167.727343,79.1202248 166.899085,79.1202248 L163.980336,79.1202248 C163.160311,79.1202248 162.539632,78.9451255 162.128884,78.5984466 C161.713726,78.2441418 161.506735,77.726763 161.506735,77.0354581 L161.506735,73.9605151 Z M166.899085,78.0153688 C167.285429,78.0153688 167.575628,77.9382313 167.778209,77.7816098 C167.973439,77.6182425 168.06782,77.3797907 168.06782,77.0524694 L168.06782,73.9605151 C168.06782,73.6326072 167.973439,73.386823 167.778209,73.228735 C167.575628,73.0595017 167.285429,72.9794311 166.899085,72.9794311 L163.980336,72.9794311 C163.597226,72.9794311 163.307027,73.0595017 163.109445,73.228735 C162.920977,73.386823 162.821892,73.6326072 162.821892,73.9605151 L162.821892,77.0351648 C162.821892,77.3627794 162.920977,77.6012312 163.109445,77.7672382 C163.307027,77.9332452 163.597226,78.0153688 163.980336,78.0153688 L166.899085,78.0153688 Z M157.571554,80.4761445 C157.9529,80.4761445 158.242511,80.3946074 158.440681,80.2283071 C158.638558,80.0625934 158.734997,79.8168091 158.734997,79.4889012 L158.734997,73.9605151 C158.734997,73.6326072 158.638558,73.386823 158.440681,73.228735 C158.242511,73.0595017 157.9529,72.9794311 157.571554,72.9794311 L154.653099,72.9794311 C154.269401,72.9794311 153.975086,73.0595017 153.779268,73.228735 C153.579039,73.386823 153.484953,73.6326072 153.484953,73.9605151 L153.484953,77.0354581 C153.484953,77.3627794 153.579039,77.6012312 153.779268,77.7672382 C153.975086,77.9332452 154.269401,78.0153688 154.653099,78.0153688 L157.860871,78.0153688 L157.860871,79.1202248 L154.653099,79.1202248 C153.829546,79.1202248 153.209455,78.9451255 152.796649,78.5984466 C152.381785,78.2441418 152.169207,77.726763 152.169207,77.0354581 L152.169207,73.9605151 C152.169207,73.2615844 152.381785,72.7462587 152.796649,72.3925406 C153.209455,72.0435152 153.829546,71.8698824 154.653099,71.8698824 L157.571554,71.8698824 C158.392168,71.8698824 159.00579,72.0435152 159.428299,72.3925406 C159.840516,72.7462587 160.048684,73.2615844 160.048684,73.9605151 L160.048684,79.4889012 C160.048684,80.1875386 159.840516,80.7099035 159.428299,81.0545294 C159.00579,81.4059012 158.392168,81.5789474 157.571554,81.5789474 L154.35849,81.5789474 L154.35849,80.4761445 L157.571554,80.4761445 Z M150.717918,79.1202248 L149.402761,79.1202248 L149.402761,73.9605151 C149.402761,73.6326072 149.305734,73.386823 149.108152,73.228735 C148.910276,73.0595017 148.627427,72.9794311 148.239319,72.9794311 L144.15507,72.9794311 L144.15507,79.1202248 L142.843735,79.1202248 L142.843735,71.8698824 L148.239319,71.8698824 C149.059638,71.8698824 149.677671,72.0435152 150.097534,72.3925406 C150.510339,72.7462587 150.717918,73.2615844 150.717918,73.9605151 L150.717918,79.1202248 Z M134.926036,75.559286 L138.84828,75.559286 L136.475234,70.4054422 L132.437146,79.1202248 L131.017611,79.1202248 L135.886603,68.7969925 L137.072097,68.7969925 L141.965199,79.1202248 L140.54096,79.1202248 L139.374578,76.6617956 L134.397092,76.6617956 L134.926036,75.559286 Z M125.185405,79.1205181 L126.49821,79.1205181 L126.49821,68.7969925 L125.185405,68.7969925 L125.185405,79.1205181 Z M116.584401,72.9794311 L116.584401,71.8698824 L121.250225,71.8698824 C122.076424,71.8698824 122.693575,72.0435152 123.104029,72.3925406 C123.519775,72.7462587 123.72706,73.2615844 123.72706,73.9605151 L123.72706,77.0354581 C123.72706,77.726763 123.519775,78.2441418 123.104029,78.5984466 C122.693575,78.9451255 122.076424,79.1202248 121.250225,79.1202248 L118.329123,79.1202248 C117.513802,79.1202248 116.890771,78.9451255 116.480023,78.5984466 C116.059867,78.2441418 115.852288,77.726763 115.852288,77.0354581 L115.852288,77.0061282 C115.852288,76.3224491 116.059867,75.7997909 116.480023,75.4627908 C116.890771,75.1208045 117.513802,74.9451186 118.329123,74.9451186 L121.544834,74.9451186 L121.544834,76.0502679 L118.329123,76.0502679 C117.943073,76.0502679 117.653462,76.1227127 117.463231,76.2910661 C117.262414,76.450034 117.167739,76.6911255 117.167739,77.0061282 L117.167739,77.0354581 C117.167739,77.3627794 117.262414,77.6012312 117.463231,77.7672382 C117.653462,77.9332452 117.943073,78.0153688 118.329123,78.0153688 L121.250225,78.0153688 C121.636568,78.0153688 121.930884,77.9332452 122.119351,77.7672382 C122.31958,77.6012312 122.418665,77.3627794 122.418665,77.0354581 L122.418665,73.9605151 C122.418665,73.6326072 122.31958,73.386823 122.119351,73.228735 C121.930884,73.0595017 121.636568,72.9794311 121.250225,72.9794311 L116.584401,72.9794311 Z M113.028214,79.1202248 L114.333962,79.1202248 L114.333962,71.8698824 L113.028214,71.8698824 L113.028214,79.1202248 Z M112.791821,70.295162 L114.546539,70.295162 L114.546539,68.7969925 L112.791821,68.7969925 L112.791821,70.295162 Z M111.623674,78.0153688 L111.623674,79.1202248 L107.688493,79.1202248 C106.868174,79.1202248 106.244849,78.9451255 105.837041,78.5984466 C105.414827,78.2441418 105.211658,77.726763 105.211658,77.0354581 L105.211658,73.9605151 C105.211658,73.2615844 105.414827,72.7462587 105.837041,72.3925406 C106.244849,72.0435152 106.868174,71.8698824 107.688493,71.8698824 L111.623674,71.8698824 L111.623674,72.9794311 L107.688493,72.9794311 C107.302149,72.9794311 107.012832,73.0595017 106.821425,73.228735 C106.621784,73.386823 106.522405,73.6326072 106.522405,73.9605151 L106.522405,77.0354581 C106.522405,77.3627794 106.621784,77.6012312 106.821425,77.7672382 C107.012832,77.9332452 107.302149,78.0153688 107.688493,78.0153688 L111.623674,78.0153688 Z M101.855993,79.1202248 L100.546717,79.1202248 L100.546717,73.9605151 C100.546717,73.2615844 100.750473,72.7462587 101.163279,72.3925406 C101.577261,72.0435152 102.204997,71.8698824 103.025022,71.8698824 L104.044688,71.8698824 L104.044688,72.9794311 L103.025022,72.9794311 C102.636914,72.9794311 102.341422,73.0595017 102.145898,73.228735 C101.953608,73.386823 101.855993,73.6326072 101.855993,73.9605151 L101.855993,79.1202248 Z M98.5003286,78.0153688 L98.5003286,79.1202248 L93.8395034,79.1202248 C93.0103634,79.1202248 92.3996812,78.9451255 91.9839351,78.5984466 C91.5640727,78.2441418 91.3626682,77.726763 91.3626682,77.0354581 L91.3626682,73.9605151 C91.3626682,73.2615844 91.5640727,72.7462587 91.9839351,72.3925406 C92.3996812,72.0435152 93.0103634,71.8698824 93.8395034,71.8698824 L96.7541362,71.8698824 C97.5773958,71.8698824 98.1980747,72.0435152 98.6097045,72.3925406 C99.0248625,72.7462587 99.2309714,73.2615844 99.2309714,73.9605151 L99.2309714,73.9889651 C99.2309714,74.6779236 99.0248625,75.1835704 98.6097045,75.5352355 C98.1980747,75.8816212 97.5773958,76.0502679 96.7541362,76.0502679 L93.5507745,76.0502679 L93.5507745,74.9451186 L96.7541362,74.9451186 C97.1390101,74.9451186 97.427739,74.8583022 97.6270854,74.7069601 C97.8173171,74.5427129 97.9216947,74.3019147 97.9216947,73.9889651 L97.9216947,73.9605151 C97.9216947,73.6326072 97.8173171,73.386823 97.6270854,73.228735 C97.427739,73.0595017 97.1390101,72.9794311 96.7541362,72.9794311 L93.8395034,72.9794311 C93.4528654,72.9794311 93.1635484,73.0595017 92.9671422,73.228735 C92.769854,73.386823 92.6719449,73.6326072 92.6719449,73.9605151 L92.6719449,77.0351648 C92.6719449,77.3627794 92.769854,77.6012312 92.9671422,77.7672382 C93.1635484,77.9332452 93.4528654,78.0153688 93.8395034,78.0153688 L98.5003286,78.0153688 Z M84.2088366,72.9794311 L81.1501333,72.9794311 L81.1501333,79.1202248 L79.8429147,79.1202248 L79.8429147,71.8698824 L87.4251353,71.8698824 C88.2498649,71.8698824 88.8687797,72.0435152 89.2809975,72.3925406 C89.6920393,72.7462587 89.8993243,73.2615844 89.8993243,73.9605151 L89.8993243,79.1202248 L88.5853432,79.1202248 L88.5853432,73.9605151 C88.5853432,73.6326072 88.4897863,73.386823 88.2957323,73.228735 C88.1046184,73.0595017 87.8097151,72.9794311 87.4251353,72.9794311 L85.5319323,72.9794311 L85.5319323,79.1202248 L84.2088366,79.1202248 L84.2088366,72.9794311 Z M70.5115616,73.9605151 C70.5115616,73.2615844 70.7156124,72.7462587 71.1304764,72.3925406 C71.5424002,72.0435152 72.161609,71.8698824 72.9883968,71.8698824 L75.9056759,71.8698824 C76.7321696,71.8698824 77.3516725,72.0435152 77.7633022,72.3925406 C78.1761081,72.7462587 78.382217,73.2615844 78.382217,73.9605151 L78.382217,77.0524694 C78.382217,77.7455341 78.1761081,78.2658459 77.7633022,78.6025527 C77.3516725,78.9451255 76.7321696,79.1202248 75.9056759,79.1202248 L72.9883968,79.1202248 C72.161609,79.1202248 71.5424002,78.9451255 71.1304764,78.5984466 C70.7156124,78.2441418 70.5115616,77.726763 70.5115616,77.0354581 L70.5115616,73.9605151 Z M75.9056759,78.0153688 C76.2911377,78.0153688 76.585453,77.9382313 76.778625,77.7816098 C76.972679,77.6182425 77.0679419,77.3797907 77.0679419,77.0524694 L77.0679419,73.9605151 C77.0679419,73.6326072 76.972679,73.386823 76.778625,73.228735 C76.585453,73.0595017 76.2911377,72.9794311 75.9056759,72.9794311 L72.9883968,72.9794311 C72.6008768,72.9794311 72.3062674,73.0595017 72.1133895,73.228735 C71.9187474,73.386823 71.8261307,73.6326072 71.8261307,73.9605151 L71.8261307,77.0354581 C71.8261307,77.3627794 71.9187474,77.6012312 72.1133895,77.7672382 C72.3062674,77.9332452 72.6008768,78.0153688 72.9883968,78.0153688 L75.9056759,78.0153688 Z M69.065565,78.0153688 L69.065565,79.1202248 L63.6717447,79.1202248 C62.8470151,79.1202248 62.2281003,78.9451255 61.8150004,78.5984466 C61.4036646,78.2441418 61.1957916,77.726763 61.1957916,77.0354581 L61.1957916,70.8899716 C61.1957916,70.1939739 61.4036646,69.6736621 61.8150004,69.3252233 C62.2281003,68.9753181 62.8470151,68.7969925 63.6717447,68.7969925 L69.065565,68.7969925 L69.065565,69.8997954 L63.6717447,69.8997954 C63.2865769,69.8997954 62.9916735,69.9871984 62.7999717,70.1502724 C62.5985671,70.3239052 62.5059504,70.56529 62.5059504,70.8899716 L62.5059504,77.0354581 C62.5059504,77.3627794 62.5985671,77.6012312 62.7999717,77.7672382 C62.9916735,77.9332452 63.2865769,78.0153688 63.6717447,78.0153688 L69.065565,78.0153688 Z M48.2191627,73.9605151 C48.2191627,73.2615844 48.4246836,72.7462587 48.8386656,72.3925406 C49.2511774,72.0435152 49.8709743,71.8698824 50.6977621,71.8698824 L53.6138651,71.8698824 C54.4318322,71.8698824 55.0569215,72.0435152 55.4688453,72.3925406 C55.8837093,72.7462587 56.0889361,73.2615844 56.0889361,73.9605151 L56.0889361,77.0524694 C56.0889361,77.7455341 55.8837093,78.2658459 55.4688453,78.6025527 C55.0569215,78.9451255 54.4318322,79.1202248 53.6138651,79.1202248 L50.6977621,79.1202248 C49.8709743,79.1202248 49.2511774,78.9451255 48.8386656,78.5984466 C48.4246836,78.2441418 48.2191627,77.726763 48.2191627,77.0354581 L48.2191627,73.9605151 Z M53.6138651,78.0153688 C53.9984449,78.0153688 54.2880558,77.9382313 54.4874023,77.7816098 C54.677928,77.6182425 54.7755431,77.3797907 54.7755431,77.0524694 L54.7755431,73.9605151 C54.7755431,73.6326072 54.677928,73.386823 54.4874023,73.228735 C54.2880558,73.0595017 53.9984449,72.9794311 53.6138651,72.9794311 L50.6977621,72.9794311 C50.309948,72.9794311 50.0153387,73.0595017 49.8212847,73.228735 C49.6222323,73.386823 49.5269694,73.6326072 49.5269694,73.9605151 L49.5269694,77.0354581 C49.5269694,77.3627794 49.6222323,77.6012312 49.8212847,77.7672382 C50.0153387,77.9332452 50.309948,78.0153688 50.6977621,78.0153688 L53.6138651,78.0153688 Z M47.0486641,78.0153688 L47.0486641,79.1202248 L43.1114252,79.1202248 C42.2884597,79.1202248 41.6689568,78.9451255 41.255857,78.5984466 C40.841581,78.2441418 40.6372362,77.726763 40.6372362,77.0354581 L40.6372362,73.9605151 C40.6372362,73.2615844 40.841581,72.7462587 41.255857,72.3925406 C41.6689568,72.0435152 42.2884597,71.8698824 43.1114252,71.8698824 L47.0486641,71.8698824 L47.0486641,72.9794311 L43.1114252,72.9794311 C42.7277274,72.9794311 42.4354703,73.0595017 42.238476,73.228735 C42.0476562,73.386823 41.9441608,73.6326072 41.9441608,73.9605151 L41.9441608,77.0354581 C41.9441608,77.3627794 42.0476562,77.6012312 42.238476,77.7672382 C42.4354703,77.9332452 42.7277274,78.0153688 43.1114252,78.0153688 L47.0486641,78.0153688 Z M39.1777146,79.1202248 L37.8619694,79.1202248 L37.8619694,73.9605151 C37.8619694,73.6326072 37.7687647,73.386823 37.5676541,73.228735 C37.3768343,73.0595017 37.0872234,72.9794311 36.6997033,72.9794311 L32.6128076,72.9794311 L32.6128076,79.1202248 L31.2991206,79.1202248 L31.2991206,71.8698824 L36.6997033,71.8698824 C37.5179645,71.8698824 38.1374673,72.0435152 38.560858,72.3925406 C38.9698416,72.7462587 39.1777146,73.2615844 39.1777146,73.9605151 L39.1777146,79.1202248 Z M22.6995864,72.9794311 L22.6995864,71.8698824 L27.3624698,71.8698824 C28.1866114,71.8698824 28.8096425,72.0435152 29.2209782,72.3925406 C29.6434868,72.7462587 29.840187,73.2615844 29.840187,73.9605151 L29.840187,77.0354581 C29.840187,77.726763 29.6434868,78.2441418 29.2209782,78.5984466 C28.8096425,78.9451255 28.1866114,79.1202248 27.3624698,79.1202248 L24.4548934,79.1202248 C23.6298697,79.1202248 23.0024283,78.9451255 22.5872703,78.5984466 C22.1729943,78.2441418 21.9715898,77.726763 21.9715898,77.0354581 L21.9715898,77.0061282 C21.9715898,76.3224491 22.1729943,75.7997909 22.5872703,75.4627908 C23.0024283,75.1208045 23.6298697,74.9451186 24.4548934,74.9451186 L27.6585492,74.9451186 L27.6585492,76.0502679 L24.4548934,76.0502679 C24.0670794,76.0502679 23.7645315,76.1227127 23.5807682,76.2910661 C23.3790696,76.450034 23.2814545,76.6911255 23.2814545,77.0061282 L23.2814545,77.0354581 C23.2814545,77.3627794 23.3790696,77.6012312 23.5807682,77.7672382 C23.7645315,77.9332452 24.0670794,78.0153688 24.4548934,78.0153688 L27.3624698,78.0153688 C27.7558702,78.0153688 28.0451872,77.9332452 28.236595,77.7672382 C28.4379996,77.6012312 28.5332625,77.3627794 28.5332625,77.0354581 L28.5332625,73.9605151 C28.5332625,73.6326072 28.4379996,73.386823 28.236595,73.228735 C28.0451872,73.0595017 27.7558702,72.9794311 27.3624698,72.9794311 L22.6995864,72.9794311 Z M12.7819549,68.7969925 L18.1784213,68.7969925 C19.0025629,68.7969925 19.6220658,68.9753181 20.0348716,69.3252233 C20.45444,69.6736621 20.6561386,70.1939739 20.6561386,70.8899716 L20.6561386,72.1156666 C20.6561386,72.4573596 20.6017446,72.7512448 20.4850182,73.0014285 C20.3668216,73.2615844 20.1948192,73.4756924 19.9607783,73.6519649 C20.1948192,73.8302905 20.3668216,74.0514377 20.4850182,74.3069008 C20.6017446,74.5647103 20.6561386,74.8583022 20.6561386,75.1835704 L20.6561386,77.0354581 C20.6561386,77.726763 20.45444,78.2441418 20.0348716,78.5984466 C19.6220658,78.9451255 19.0025629,79.1205181 18.1784213,79.1205181 L12.7819549,79.1205181 L12.7819549,68.7969925 Z M14.0974061,69.8997954 L14.0974061,78.0153688 L18.1784213,78.0153688 C18.5691756,78.0153688 18.8576105,77.9332452 19.0525466,77.7672382 C19.2536571,77.6012312 19.3471559,77.3627794 19.3471559,77.0351648 L19.3471559,75.1835704 C19.3471559,74.8800063 19.2595375,74.6392082 19.0713639,74.4752542 C18.8943631,74.3069008 18.6176891,74.2200844 18.2516326,74.2106988 L14.9703552,74.2106988 L14.9703552,73.1005635 L18.2666277,73.1005635 C18.6259217,73.0835522 18.8943631,72.992043 19.0713639,72.8233963 C19.2595375,72.6600289 19.3471559,72.4189374 19.3471559,72.1156666 L19.3471559,70.8899716 C19.3471559,70.56529 19.2536571,70.3239052 19.0525466,70.1502724 C18.8576105,69.9871984 18.5691756,69.8997954 18.1784213,69.8997954 L14.0974061,69.8997954 Z" id="Fill-1" fill="#006A12"></path>
            <path d="M79.7713462,43.9720708 L100.556185,43.9720708 C101.255095,43.9720708 101.982844,43.6016154 102.738843,42.8647981 C103.502788,42.1271036 103.873873,41.4575355 103.873873,40.8794848 C103.873873,40.1938354 103.560467,39.4470769 102.914233,38.6126021 C102.26329,37.7863141 101.555552,37.3360369 100.776599,37.2711268 L100.278681,37.2711268 L84.3120521,37.2711268 C83.3553551,37.2711268 82.5054809,36.8071073 81.7636067,35.878776 C81.062637,35.0416697 80.7106808,34.1870201 80.7106808,33.3189207 C80.7106808,32.5098836 81.1191384,31.6441233 81.9336992,30.7146224 C82.7464944,29.7827824 83.6322705,29.3196401 84.5886732,29.3196401 L100.499978,29.3196401 C101.243618,29.3196401 101.982844,28.9465533 102.738843,28.2065197 C103.502494,27.4582993 103.873873,26.8080288 103.873873,26.2483985 C103.873873,25.5636262 103.547519,24.8113124 102.878919,23.9902874 C102.220326,23.1692624 101.499051,22.7593347 100.722746,22.7593347 C93.7324721,22.7593347 86.7510263,22.7643053 79.7713462,22.7683987 L79.7713462,43.9720708 Z M112.030075,26.106298 C112.030075,28.4951065 111.073084,30.7728076 109.139679,32.9502196 C111.073084,35.0837735 112.030075,37.6769611 112.030075,40.7148705 C112.030075,43.3870027 110.885629,45.8781469 108.594088,48.2020453 C106.189544,50.6557638 103.417448,51.8796992 100.278681,51.8796992 L74.3395671,51.8796992 C73.374336,51.8796992 72.5253447,51.4168493 71.7828819,50.4864713 C71.0978032,49.6525813 70.7423157,48.8315563 70.7358416,48.0055607 L70.6766917,48.0055607 L70.6766917,18.8056667 L70.6766917,18.7793517 C70.6766917,17.9273337 71.0978032,17.0329193 71.9191325,16.1013717 C72.7454644,15.165146 73.6459544,14.6976178 74.6253108,14.6976178 C83.2138075,14.6976178 91.8037756,14.6616541 100.42376,14.6616541 C104.018363,14.6616541 106.901108,15.8426085 109.089652,18.1986695 C111.048365,20.365848 112.030075,23.0069872 112.030075,26.106298 Z" id="Fill-3" fill="#006A12"></path>
            <path d="M196.928381,45.9510828 C197.228595,46.4745379 197.368421,47.0035369 197.368421,47.5278674 C197.368421,48.7346737 196.765643,49.7474456 195.548629,50.5720187 C194.328972,51.3860877 192.983589,51.7986661 191.521293,51.7986661 C189.559326,51.7986661 188.178986,51.1010177 187.369407,49.7133072 L183.399646,42.7487862 C179.714531,42.7321547 176.037053,42.7467437 172.365157,42.7467437 C171.104962,42.7467437 170.059794,42.3420435 169.209089,41.5396457 C168.364846,40.7317041 167.934794,39.8093843 167.934794,38.7551795 C167.934794,37.6750062 168.364846,36.7325535 169.209089,35.9441612 C170.059794,35.1592703 171.104962,34.7636152 172.365157,34.7636152 C174.519532,34.7636152 176.679488,34.7507769 178.839151,34.7507769 L175.23893,28.4465563 C174.499851,27.1440459 173.479651,26.4983345 172.179506,26.4983345 C171.027412,26.4983345 170.137344,27.0521348 169.504897,28.1521493 L159.44302,47.1082863 C156.115694,52.1263362 155.135445,52.0245046 147.246155,51.7986661 L141.58086,51.7986661 L130.641546,51.7986661 C121.460043,51.7986661 116.88486,47.6369935 116.917293,39.310147 L116.917293,26.5890784 C116.917293,23.4031215 117.989954,20.6694252 120.132579,18.3748593 C122.45263,15.8979303 125.482091,14.6616541 129.21215,14.6616541 L149.125872,14.6616541 C150.381073,14.6616541 151.371016,15.036301 152.081308,15.8013508 C152.800412,16.5558965 153.165839,17.4624601 153.165839,18.5125799 C153.165839,19.5977135 152.795418,20.5074867 152.060452,21.2512365 C151.286122,22.0874809 150.260929,22.5006428 149.008371,22.5006428 L130.601596,22.5006428 C129.196581,22.5006428 128.099125,22.9289773 127.322152,23.782145 C126.552228,24.6233497 126.167414,25.6565463 126.167414,26.8610183 L126.167414,40.016257 C126.167414,41.039533 126.581897,41.9344254 127.407046,42.7067697 C128.234251,43.4706524 129.261794,43.8601801 130.476458,43.8601801 C137.864019,43.8601801 143.406233,43.95355 149.32533,44.1046926 L150.950364,41.0281536 L162.900183,19.3024311 C163.717694,17.8175576 164.950277,16.6726089 166.609974,15.8640837 C168.272315,15.0622695 170.059794,14.6616541 171.976817,14.6616541 C174.004879,14.6616541 175.869615,15.0812352 177.564562,15.9101851 C179.409617,16.8117884 180.789075,18.0681975 181.716743,19.6773697 L196.928381,45.9510828 Z" id="Fill-5" fill="#006A12"></path>
            <path d="M28.8754184,30.1295881 L28.4397655,30.5705247 L28.4059141,30.5366744 L28.3720627,30.5054733 L28.3382113,30.476627 L28.297884,30.4551394 L28.2666818,30.4327688 L28.224294,30.4130473 L28.1877933,30.3939146 L28.1454055,30.3765479 L28.1115541,30.3588869 L28.066517,30.3474072 L28.0261896,30.3362219 L27.9861567,30.331218 L27.9475955,30.3200327 L27.9049133,30.3109078 L27.8619367,30.3109078 L27.817194,30.3109078 L27.7768667,30.3109078 L27.7318296,30.3109078 L27.6979782,30.3200327 L27.6464652,30.331218 L27.6105532,30.3362219 L27.5675767,30.3474072 L27.5340196,30.3588869 L27.4889825,30.3765479 L27.4489496,30.3939146 L27.4127433,30.4130473 L27.3747708,30.4327688 L27.3359153,30.4551394 L27.2958823,30.476627 L27.2673294,30.5054733 L27.233478,30.5366744 L27.1946225,30.5705247 L26.7689778,30.1295881 L26.8172529,30.0798429 L26.8764192,30.0318638 L26.9341138,29.9841791 L26.9956351,29.942087 L27.0606886,29.9014667 L27.1260366,29.8667334 L27.1887353,29.8352379 L27.2623253,29.8063916 L27.325024,29.7778396 L27.3977309,29.7601786 L27.4627845,29.7416345 L27.5340196,29.7239735 L27.6040773,29.7124939 L27.6759012,29.7010142 L27.7494912,29.6992481 L27.817194,29.6992481 L27.8872517,29.6992481 L27.9608417,29.7010142 L28.0323712,29.7124939 L28.1050781,29.7239735 L28.1701317,29.7416345 L28.2469597,29.7601786 L28.3120133,29.7778396 L28.3832484,29.8063916 L28.4459471,29.8352379 L28.5110007,29.8667334 L28.5760542,29.9014667 L28.6375755,29.942087 L28.7002742,29.9841791 L28.7603236,30.0318638 L28.8189013,30.0798429 L28.8754184,30.1295881 Z M27.1946225,30.5705247 L27.1946225,30.5705247 L15.5311938,42.2376829 L15.0925973,41.7976294 L26.7689778,30.1295881 L27.1946225,30.5705247 Z M15.0925973,41.7976294 L15.0925973,41.7976294 L16.0160048,40.8813172 L15.0925973,41.7976294 Z M15.0925973,41.7976294 L15.5311938,42.2376829 L15.4999916,42.2677066 L15.4723217,42.2965529 L15.4437688,42.3324637 L15.4158046,42.3727896 L15.3931389,42.4066399 L15.3757716,42.4466715 L15.35811,42.4828766 L15.3357387,42.525263 L15.3307346,42.5614681 L15.3080688,42.6047376 L15.3018873,42.6441805 L15.2904072,42.6848008 L15.287758,42.7271873 L15.2742174,42.7745776 L15.2742174,42.8113714 L15.2742174,42.8531691 L15.2742174,42.9023256 L15.2742174,42.938825 L15.287758,42.9835663 L15.2904072,43.0241866 L15.3018873,43.0689278 L15.3080688,43.1027781 L15.3307346,43.148108 L15.3357387,43.1881396 L15.35811,43.2278769 L15.3757716,43.2620215 L15.3931389,43.3008758 L15.4158046,43.3356091 L15.4437688,43.3718142 L15.4723217,43.4056644 L15.4999916,43.439809 L15.5311938,43.4710102 L15.0925973,43.9066484 L15.0452053,43.8569033 L14.9963415,43.7942067 L14.9510101,43.7315101 L14.9089166,43.6755835 L14.8662344,43.6102378 L14.832383,43.5451864 L14.8035357,43.4827842 L14.7758658,43.4150836 L14.7446637,43.3470887 L14.7243528,43.2782108 L14.7019815,43.2078611 L14.6881465,43.1369227 L14.6728398,43.0689278 L14.6657752,42.9950459 L14.6657752,42.9276397 L14.6616541,42.8531691 L14.6657752,42.7860573 L14.6657752,42.711881 L14.6728398,42.6394709 L14.6881465,42.5682382 L14.7019815,42.5028924 L14.7243528,42.4293049 L14.7446637,42.3616043 L14.7758658,42.2939038 L14.8035357,42.2288524 L14.832383,42.1635066 L14.8662344,42.0946287 L14.9089166,42.0334039 L14.9510101,41.977183 L14.9963415,41.9118372 L15.0452053,41.8576768 L15.0925973,41.7976294 Z M15.0925973,43.9066484 L15.0925973,43.9066484 L15.981859,44.7938199 L15.0925973,43.9066484 Z M15.0925973,43.9066484 L15.5311938,43.4710102 L27.1946225,55.142878 L26.7689778,55.5735123 L15.0925973,43.9066484 Z M27.1946225,55.142878 L27.1946225,55.142878 L26.3165464,54.2589444 L27.1946225,55.142878 Z M26.7689778,55.5735123 L27.1946225,55.142878 L27.233478,55.1705469 L27.2673294,55.2029254 L27.2958823,55.2282396 L27.3359153,55.2535537 L27.3747708,55.2729808 L27.4127433,55.2932909 L27.4489496,55.3183107 L27.4889825,55.3330282 L27.5278381,55.3459796 L27.5675767,55.3583423 L27.6105532,55.3736485 L27.6464652,55.3789468 L27.6979782,55.3860113 L27.7318296,55.398374 L27.7768667,55.398374 L27.817194,55.398374 L27.8619367,55.398374 L27.9049133,55.398374 L27.9475955,55.3860113 L27.9861567,55.3789468 L28.0261896,55.3736485 L28.066517,55.3583423 L28.1115541,55.3459796 L28.1454055,55.3330282 L28.1877933,55.3183107 L28.224294,55.2932909 L28.2666818,55.2729808 L28.297884,55.2535537 L28.3382113,55.2282396 L28.3720627,55.2029254 L28.4059141,55.1705469 L28.4397655,55.142878 L28.8754184,55.5735123 L28.8189013,55.6291445 L28.7603236,55.6741801 L28.7002742,55.7189213 L28.6375755,55.7645456 L28.5760542,55.8025168 L28.5110007,55.8393105 L28.4459471,55.8796365 L28.3832484,55.8996523 L28.3120133,55.929676 L28.2469597,55.9446879 L28.1701317,55.9697077 L28.1050781,55.9844252 L28.0323712,55.9970822 L27.9608417,56.0023805 L27.8872517,56.0097393 L27.817194,56.0150376 L27.7494912,56.0097393 L27.6759012,56.0023805 L27.6040773,55.9970822 L27.5340196,55.9844252 L27.4627845,55.9697077 L27.3977309,55.9446879 L27.325024,55.929676 L27.2623253,55.8996523 L27.1887353,55.8796365 L27.1260366,55.8393105 L27.0606886,55.8025168 L26.9956351,55.7645456 L26.9341138,55.7189213 L26.8764192,55.6741801 L26.8172529,55.6291445 L26.7689778,55.5735123 Z M28.4397655,55.142878 L28.4397655,55.142878 L29.3228457,54.2589444 L28.4397655,55.142878 Z M28.4397655,55.142878 L28.4397655,55.142878 L40.1055491,43.4710102 L40.541202,43.9066484 L28.8754184,55.5735123 L28.4397655,55.142878 Z M40.541202,43.9066484 L40.1055491,43.4710102 L40.1370456,43.439809 L40.1670704,43.4059588 L40.1894417,43.3718142 L40.2185834,43.3356091 L40.2406604,43.3008758 L40.2636205,43.2620215 L40.2809877,43.2278769 L40.2974719,43.1881396 L40.3127786,43.148108 L40.3263192,43.1092538 L40.3348556,43.0692222 L40.3398597,43.0241866 L40.3578157,42.9835663 L40.3578157,42.938825 L40.3625254,42.8961443 L40.3625254,42.8531691 L40.3625254,42.8113714 L40.3578157,42.7745776 L40.3578157,42.7271873 L40.3398597,42.6900991 L40.3348556,42.6441805 L40.3263192,42.6047376 L40.3127786,42.5614681 L40.2974719,42.525263 L40.2809877,42.4828766 L40.2636205,42.4466715 L40.2406604,42.4066399 L40.2185834,42.3727896 L40.1894417,42.3324637 L40.1670704,42.2965529 L40.1370456,42.2677066 L40.1055491,42.2376829 L40.541202,41.7976294 L40.5918319,41.8576768 L40.6404013,41.9118372 L40.6919143,41.977183 L40.7281206,42.0334039 L40.7681536,42.0946287 L40.8070091,42.1573253 L40.8408605,42.2288524 L40.8694135,42.2939038 L40.8920792,42.3618987 L40.91239,42.4293049 L40.934467,42.5028924 L40.9485963,42.565589 L40.9600764,42.6394709 L40.9709677,42.7121754 L40.9774436,42.7860573 L40.9774436,42.8531691 L40.9774436,42.9276397 L40.9709677,42.9950459 L40.9600764,43.0692222 L40.9485963,43.1401606 L40.934467,43.2081555 L40.91239,43.2729125 L40.8920792,43.3470887 L40.8694135,43.4150836 L40.8408605,43.4827842 L40.8070091,43.5454808 L40.7681536,43.6102378 L40.7281206,43.6755835 L40.6919143,43.7315101 L40.6404013,43.7942067 L40.5918319,43.8569033 L40.541202,43.9066484 Z M40.1055491,42.2376829 L40.1055491,42.2376829 L28.4397655,30.5705247 L28.8754184,30.1295881 L40.541202,41.7976294 L40.1055491,42.2376829 Z" id="Fill-7" fill="#F2F2F2"></path>
            <path d="M28.6472391,30.0441516 L40.2570049,41.6466069 C40.7163367,42.1053073 40.7163367,42.8552692 40.2570049,43.3130914 L28.6472391,54.9228649 C28.1937623,55.3765889 27.4422615,55.3765889 26.9855644,54.9228649 L15.3842885,43.3130914 C14.9220291,42.8552692 14.9220291,42.1053073 15.3842885,41.6466069 L26.9855644,30.0441516 C27.4422615,29.5842803 28.1937623,29.5842803 28.6472391,30.0441516" id="Fill-9" fill="#035F4A"></path>
            <path d="M28.6472391,30.0441516 L40.2570049,41.6466069 C40.7163367,42.1053073 40.7163367,42.8552692 40.2570049,43.3130914 L28.6472391,54.9228649 C28.1937623,55.3765889 27.4422615,55.3765889 26.9855644,54.9228649 L15.3842885,43.3130914 C14.9220291,42.8552692 14.9220291,42.1053073 15.3842885,41.6466069 L26.9855644,30.0441516 C27.4422615,29.5842803 28.1937623,29.5842803 28.6472391,30.0441516" id="Fill-11" fill="#7BB284"></path>
            <path d="M28.8754184,0.434813584 L28.4397655,0.86668327 L28.4059141,0.83812747 L28.3720627,0.810454838 L28.3382113,0.781604648 L28.2975896,0.756287134 L28.2666818,0.735091075 L28.224294,0.718016473 L28.1877933,0.695348466 L28.1454055,0.677685084 L28.1115541,0.661199261 L28.066517,0.650012453 L28.0261896,0.638825644 L27.9861567,0.628522005 L27.9473011,0.625872497 L27.9049133,0.617629586 L27.8619367,0.614980079 L27.817194,0.614980079 L27.7768667,0.614980079 L27.7318296,0.617629586 L27.6979782,0.625872497 L27.6464652,0.628522005 L27.6105532,0.638825644 L27.5675767,0.650012453 L27.5340196,0.661199261 L27.4886882,0.677685084 L27.4489496,0.695348466 L27.4127433,0.718016473 L27.3747708,0.735091075 L27.3359153,0.756287134 L27.2958823,0.781604648 L27.267035,0.810454838 L27.233478,0.83812747 L27.1946225,0.86668327 L26.7689778,0.434813584 L26.8172529,0.386828063 L26.8764192,0.330599631 L26.9338194,0.285263617 L26.9956351,0.242871501 L27.0606886,0.207839127 L27.1260366,0.171334804 L27.1884409,0.133947312 L27.2623253,0.106569071 L27.3247296,0.0862561814 L27.3974365,0.0638825644 L27.4627845,0.0426865062 L27.5340196,0.0285558007 L27.6037829,0.0132475364 L27.6756068,0.0111868085 L27.7494912,0.00647657335 L27.817194,0 L27.8872517,0.00647657335 L27.9608417,0.0111868085 L28.0323712,0.0132475364 L28.1047838,0.0285558007 L28.1701317,0.0426865062 L28.2469597,0.0638825644 L28.3117189,0.0862561814 L28.3832484,0.106569071 L28.4459471,0.133947312 L28.5107063,0.171334804 L28.5760542,0.207839127 L28.6375755,0.242871501 L28.7002742,0.285263617 L28.7603236,0.330599631 L28.8189013,0.386828063 L28.8754184,0.434813584 Z M27.1946225,0.86668327 L27.1946225,0.86668327 L15.5308994,12.5339358 L15.0925973,12.1032436 L26.7689778,0.434813584 L27.1946225,0.86668327 Z M15.5308994,12.5339358 L15.5308994,12.5339358 L16.4516577,11.6169119 L15.5308994,12.5339358 Z M15.0925973,12.1032436 L15.5308994,12.5339358 L15.4996972,12.5713233 L15.4723217,12.60665 L15.4434745,12.6378553 L15.4155103,12.6743597 L15.3931389,12.7141023 L15.3757716,12.7506066 L15.35811,12.784167 L15.3357387,12.8283255 L15.3304402,12.8633578 L15.3080688,12.9069275 L15.3018873,12.945787 L15.2904072,12.9884735 L15.287758,13.0314544 L15.2742174,13.071197 L15.2742174,13.1153554 L15.2742174,13.1577475 L15.2742174,13.2013172 L15.2742174,13.2407654 L15.287758,13.2802137 L15.2904072,13.3281992 L15.3018873,13.3655867 L15.3080688,13.4097451 L15.3304402,13.4459551 L15.3357387,13.487464 L15.35811,13.5272066 L15.3757716,13.5663604 L15.3931389,13.6034535 L15.4208087,13.6414298 L15.4434745,13.6752846 L15.4723217,13.7091394 L15.4996972,13.7465269 L15.5308994,13.7765547 L15.0925973,14.2137234 L15.0452053,14.1586725 L14.9963415,14.098617 L14.9510101,14.037384 L14.9089166,13.9808611 L14.86594,13.9181561 L14.8320886,13.8492689 L14.8035357,13.7845032 L14.7758658,13.7164992 L14.7446637,13.6523222 L14.7243528,13.5772529 L14.7019815,13.5121927 L14.6881465,13.440656 L14.6731342,13.3691193 L14.6657752,13.3028817 L14.6657752,13.2269291 L14.6616541,13.1577475 L14.6657752,13.092393 L14.6657752,13.013791 L14.6731342,12.9407823 L14.6881465,12.8798437 L14.7019815,12.8006528 L14.7243528,12.7370647 L14.7446637,12.6631728 L14.7758658,12.5992903 L14.8035357,12.5312863 L14.8320886,12.465343 L14.86594,12.4002828 L14.9089166,12.3375778 L14.9510101,12.2734009 L14.9963415,12.2165837 L15.0452053,12.1565282 L15.0925973,12.1032436 Z M15.5308994,13.7765547 L15.5308994,13.7765547 L27.1946225,25.4511669 L26.7689778,25.8809759 L15.0925973,14.2137234 L15.5308994,13.7765547 Z M26.7689778,25.8809759 L27.1946225,25.4511669 L27.233478,25.479134 L27.267035,25.5088673 L27.2958823,25.535068 L27.3359153,25.557736 L27.3747708,25.5830535 L27.4127433,25.6027776 L27.4489496,25.6239737 L27.4886882,25.6416371 L27.5340196,25.6519407 L27.5675767,25.6719592 L27.6105532,25.6746087 L27.6464652,25.6855011 L27.6979782,25.6966879 L27.7318296,25.6966879 L27.7768667,25.7034589 L27.817194,25.7034589 L27.8619367,25.7034589 L27.9049133,25.6966879 L27.9473011,25.6966879 L27.9861567,25.6855011 L28.0261896,25.6746087 L28.066517,25.6719592 L28.1115541,25.6519407 L28.1454055,25.6416371 L28.1877933,25.6239737 L28.224294,25.6027776 L28.2666818,25.5830535 L28.2975896,25.557736 L28.3382113,25.535068 L28.3720627,25.5088673 L28.4059141,25.479134 L28.4397655,25.4511669 L28.8754184,25.8809759 L28.8189013,25.9374987 L28.7603236,25.9810684 L28.7002742,26.0317034 L28.6375755,26.0699741 L28.5760542,26.1126606 L28.5107063,26.1491649 L28.4459471,26.1730105 L28.3832484,26.2018607 L28.3117189,26.2354211 L28.2469597,26.255734 L28.1701317,26.2754581 L28.1047838,26.2881168 L28.0323712,26.3016588 L27.9608417,26.3043083 L27.8872517,26.31314 L27.817194,26.3157895 L27.7494912,26.31314 L27.6756068,26.3043083 L27.6037829,26.3016588 L27.5340196,26.2881168 L27.4627845,26.2754581 L27.3974365,26.255734 L27.3247296,26.2354211 L27.2623253,26.2018607 L27.1884409,26.1730105 L27.1260366,26.1491649 L27.0606886,26.1126606 L26.9956351,26.0699741 L26.9338194,26.0317034 L26.8764192,25.9810684 L26.8172529,25.9374987 L26.7689778,25.8809759 Z M28.8754184,25.8809759 L28.4397655,25.4511669 L40.1055491,13.7765547 L40.541202,14.2137234 L28.8754184,25.8809759 Z M40.1055491,13.7765547 L40.1105532,13.7765547 L39.6572387,14.2278541 L40.1055491,13.7765547 Z M40.541202,14.2137234 L40.1055491,13.7765547 L40.1105532,13.7765547 L40.1367513,13.7465269 L40.1670704,13.7091394 L40.1894417,13.6752846 L40.2185834,13.6414298 L40.2406604,13.6034535 L40.2636205,13.5663604 L40.2809877,13.5272066 L40.2974719,13.487464 L40.3127786,13.4468382 L40.3263192,13.4097451 L40.3345612,13.3655867 L40.3398597,13.3281992 L40.3575213,13.2802137 L40.3575213,13.240471 L40.3625254,13.1980789 L40.3625254,13.1577475 L40.3625254,13.1153554 L40.3575213,13.071197 L40.3575213,13.0314544 L40.3398597,12.9884735 L40.3345612,12.945787 L40.3263192,12.9069275 L40.3127786,12.8633578 L40.2974719,12.8283255 L40.2809877,12.7903492 L40.2636205,12.7506066 L40.2406604,12.7141023 L40.2185834,12.6743597 L40.1894417,12.6378553 L40.1670704,12.60665 L40.1367513,12.5713233 L40.1105532,12.5339358 L40.541202,12.1032436 L40.5915376,12.1565282 L40.6404013,12.2165837 L40.69162,12.2734009 L40.7331248,12.3375778 L40.7681536,12.4002828 L40.8070091,12.465343 L40.8408605,12.5312863 L40.8694135,12.5992903 L40.8920792,12.665528 L40.91239,12.7370647 L40.934467,12.8006528 L40.9485963,12.874839 L40.9600764,12.945787 L40.9709677,13.013791 L40.9774436,13.0888604 L40.9774436,13.1577475 L40.9774436,13.2269291 L40.9709677,13.3028817 L40.9600764,13.3691193 L40.9485963,13.4433055 L40.934467,13.5121927 L40.91239,13.5772529 L40.8920792,13.6523222 L40.8694135,13.7164992 L40.8408605,13.7845032 L40.8070091,13.8528016 L40.7681536,13.9181561 L40.7331248,13.9808611 L40.69162,14.037384 L40.6404013,14.098617 L40.5915376,14.1586725 L40.541202,14.2137234 Z M40.1105532,12.5339358 L40.1055491,12.5339358 L39.6410489,12.0844027 L40.1105532,12.5339358 Z M40.1105532,12.5339358 L40.1055491,12.5339358 L28.4397655,0.86668327 L28.8754184,0.434813584 L40.541202,12.1032436 L40.1105532,12.5339358 Z" id="Fill-13" fill="#F2F2F2"></path>
            <path d="M28.6472391,0.716981325 L40.2570049,12.3251284 C40.7163367,12.7824856 40.7163367,13.5323523 40.2570049,13.9894167 L28.6472391,25.601663 C28.1937623,26.0525785 27.4422615,26.0525785 26.9855644,25.601663 L15.3842885,13.9894167 C14.9220291,13.5323523 14.9220291,12.7824856 15.3842885,12.3251284 L26.9855644,0.716981325 C27.4422615,0.262259358 28.1937623,0.262259358 28.6472391,0.716981325" id="Fill-15" fill="#035F4A"></path>
            <path d="M28.6472391,0.716981325 L40.2570049,12.3251284 C40.7163367,12.7824856 40.7163367,13.5323523 40.2570049,13.9894167 L28.6472391,25.601663 C28.1937623,26.0525785 27.4422615,26.0525785 26.9855644,25.601663 L15.3842885,13.9894167 C14.9220291,13.5323523 14.9220291,12.7824856 15.3842885,12.3251284 L26.9855644,0.716981325 C27.4422615,0.262259358 28.1937623,0.262259358 28.6472391,0.716981325" id="Fill-17" fill="#7BB284"></path>
            <path d="M30.1308089,26.7626715 L30.1308089,26.7626715 L31.053984,25.8466817 L30.1308089,26.7626715 Z M30.1308089,26.7626715 L30.5709068,27.2010865 L30.5370531,27.2287634 L30.5082039,27.2679234 L30.4793546,27.2979558 L30.454038,27.3353492 L30.4319595,27.3715648 L30.4142967,27.414258 L30.3978114,27.4492958 L30.3754386,27.4893391 L30.3616027,27.5282046 L30.3465893,27.5670702 L30.3380523,27.6112355 L30.3330479,27.6445068 L30.3262771,27.6910276 L30.3212727,27.7390207 L30.3100862,27.7749418 L30.3100862,27.8179295 L30.3100862,27.8641559 L30.3212727,27.9065547 L30.3262771,27.9492478 L30.3330479,27.9878189 L30.3380523,28.0305121 L30.3465893,28.0667277 L30.3616027,28.1097154 L30.3754386,28.1444588 L30.3978114,28.1874464 L30.4142967,28.2271953 L30.4319595,28.2663552 L30.4605143,28.3025708 L30.4793546,28.3364309 L30.5082039,28.3702911 L30.5370531,28.4091566 L30.5709068,28.4388946 L30.1308089,28.8714208 L30.0810587,28.8137114 L30.0318973,28.7598296 L29.9868572,28.7047701 L29.9356351,28.6420553 L29.9056084,28.576985 L29.8676334,28.5130924 L29.8405504,28.4456666 L29.8117012,28.3814796 L29.7831464,28.3137594 L29.7601847,28.2436837 L29.7489983,28.1730191 L29.7263311,28.1008823 L29.7213266,28.0352231 L29.7036638,27.9607308 L29.6992481,27.8930106 L29.6992481,27.8179295 L29.6992481,27.7434372 L29.7036638,27.6771892 L29.7213266,27.6035802 L29.7263311,27.5343878 L29.7489983,27.4631343 L29.7601847,27.3965918 L29.7831464,27.329166 L29.8117012,27.260268 L29.8405504,27.1913701 L29.8676334,27.1248276 L29.9056084,27.0597573 L29.9471159,26.9996924 L29.9868572,26.9343276 L30.0318973,26.8739683 L30.0810587,26.8215587 L30.1308089,26.7626715 Z M30.5709068,28.4388946 L30.5709068,28.4388946 L42.2336464,40.1082691 L41.8062069,40.5416786 L30.1308089,28.8714208 L30.5709068,28.4388946 Z M42.2336464,40.1082691 L42.2336464,40.1132745 L41.3190083,39.1875683 L42.2336464,40.1082691 Z M41.8062069,40.5416786 L42.2336464,40.1082691 L42.2336464,40.1132745 L42.2698551,40.1371238 L42.3072414,40.168334 L42.3437445,40.1945388 L42.3725937,40.2198603 L42.4114518,40.2445929 L42.4517818,40.2710921 L42.4856355,40.2858139 L42.5280262,40.30613 L42.5645293,40.319674 L42.60692,40.3285071 L42.6446006,40.3402845 L42.6834588,40.3511786 L42.7296764,40.3511786 L42.7726558,40.3647227 L42.8135746,40.3647227 L42.8562597,40.3647227 L42.8986504,40.3647227 L42.9442793,40.3647227 L42.9840206,40.3511786 L43.0290607,40.3511786 L43.0670357,40.3402845 L43.1058938,40.3285071 L43.1459295,40.319674 L43.1856707,40.30613 L43.2271783,40.2858139 L43.2625039,40.2672644 L43.3007732,40.2445929 L43.3411033,40.2198603 L43.374957,40.1945388 L43.4064556,40.168334 L43.4426643,40.1371238 L43.4800506,40.1082691 L43.9122001,40.5416786 L43.8556792,40.5982103 L43.7994527,40.6429645 L43.7429317,40.6947852 L43.6778738,40.7330619 L43.6128159,40.7707497 L43.5501129,40.8072597 L43.485055,40.8437698 L43.4173477,40.8749799 L43.3496403,40.8947071 L43.2786948,40.9200286 L43.210693,40.9374003 L43.14328,40.9550665 L43.0690963,40.9621329 L43.0016833,40.9712605 L42.927794,40.9774436 L42.8562597,40.9774436 L42.7861973,40.9774436 L42.7126024,40.9712605 L42.6446006,40.9621329 L42.5771876,40.9550665 L42.505359,40.9374003 L42.4291146,40.9200286 L42.3611129,40.8947071 L42.2963493,40.8749799 L42.2274644,40.8437698 L42.1627009,40.8072597 L42.1008811,40.7707497 L42.0358232,40.7330619 L41.9754753,40.6947852 L41.9139499,40.6429645 L41.8565459,40.5982103 L41.8062069,40.5416786 Z M43.4800506,40.1082691 L43.4800506,40.1082691 L55.148089,28.4388946 L55.5820049,28.8714208 L43.9122001,40.5416786 L43.4800506,40.1082691 Z M55.5820049,28.8714208 L55.148089,28.4388946 L55.1769383,28.4091566 L55.2057875,28.3702911 L55.2311041,28.3364309 L55.2555377,28.3025708 L55.2823262,28.2663552 L55.3046991,28.2271953 L55.3182406,28.1874464 L55.3385528,28.1444588 L55.352683,28.1097154 L55.3638694,28.0667277 L55.3747615,28.0305121 L55.3859479,27.9878189 L55.3859479,27.9492478 L55.4036107,27.9065547 L55.4036107,27.8641559 L55.4036107,27.8179295 L55.4036107,27.7749418 L55.4036107,27.7390207 L55.3859479,27.6910276 L55.3859479,27.6448012 L55.3747615,27.6112355 L55.3638694,27.5673646 L55.352683,27.5282046 L55.3385528,27.4893391 L55.3182406,27.4492958 L55.3046991,27.414258 L55.2823262,27.3715648 L55.2555377,27.3353492 L55.2311041,27.2979558 L55.2057875,27.2679234 L55.1769383,27.2287634 L55.148089,27.2010865 L55.5820049,26.7626715 L55.6326382,26.8215587 L55.6803277,26.8742627 L55.7268398,26.934622 L55.7654035,26.9996924 L55.8080886,27.0597573 L55.8445917,27.1248276 L55.8825667,27.1913701 L55.9022901,27.260268 L55.9332,27.329166 L55.9523347,27.3965918 L55.9747076,27.4634288 L55.9861884,27.5343878 L56.0032624,27.6038746 L56.0100331,27.6771892 L56.0150376,27.7437317 L56.0150376,27.8179295 L56.0150376,27.8930106 L56.0100331,27.9610253 L56.0032624,28.0355175 L55.9861884,28.1008823 L55.9747076,28.1733135 L55.9523347,28.2436837 L55.9332,28.3137594 L55.9022901,28.3814796 L55.8825667,28.4456666 L55.8445917,28.5133869 L55.8080886,28.576985 L55.7748237,28.6420553 L55.7268398,28.7047701 L55.6803277,28.7598296 L55.6326382,28.8137114 L55.5820049,28.8714208 Z M55.5820049,26.7626715 L55.5820049,26.7626715 L54.6579466,25.8466817 L55.5820049,26.7626715 Z M55.5820049,26.7626715 L55.148089,27.2010865 L43.4800506,15.5334786 L43.9122001,15.0924137 L55.5820049,26.7626715 Z M43.9122001,15.0924137 L43.4800506,15.5334786 L43.4426643,15.4960852 L43.4064556,15.4681138 L43.374957,15.4369036 L43.3411033,15.4145265 L43.3007732,15.3906772 L43.2625039,15.375661 L43.2271783,15.3529894 L43.1856707,15.3367954 L43.1459295,15.3214848 L43.1058938,15.3064686 L43.0670357,15.2991077 L43.0290607,15.2852692 L42.9840206,15.2840914 L42.9442793,15.2752584 L42.8986504,15.2752584 L42.8562597,15.2752584 L42.8135746,15.2752584 L42.7726558,15.2752584 L42.7296764,15.2840914 L42.6834588,15.2852692 L42.6446006,15.2991077 L42.60692,15.3064686 L42.5645293,15.3214848 L42.5280262,15.3367954 L42.4856355,15.3529894 L42.4517818,15.3733055 L42.4114518,15.3906772 L42.3725937,15.4145265 L42.3437445,15.4369036 L42.3072414,15.4681138 L42.2698551,15.4960852 L42.2336464,15.5287676 L41.8065013,15.0988913 L41.8565459,15.0373542 L41.9139499,14.9931889 L41.9754753,14.946668 L42.0358232,14.9019138 L42.1008811,14.8654037 L42.1627009,14.8259493 L42.2274644,14.7979779 L42.2963493,14.7705954 L42.3614072,14.7443906 L42.4291146,14.721719 L42.505359,14.7005197 L42.5771876,14.6866812 L42.6446006,14.6725483 L42.7126024,14.6616541 L42.7861973,14.6616541 L42.8562597,14.6616541 L42.927794,14.6616541 L43.0016833,14.6616541 L43.0693907,14.6725483 L43.14328,14.6866812 L43.210693,14.7005197 L43.2786948,14.721719 L43.3499347,14.7443906 L43.4173477,14.7705954 L43.485055,14.7979779 L43.5501129,14.8259493 L43.6128159,14.8654037 L43.6778738,14.9019138 L43.7429317,14.946668 L43.799747,14.9931889 L43.8556792,15.0373542 L43.9122001,15.0924137 Z M42.2336464,15.5287676 L42.2336464,15.5334786 L41.3190083,16.4477018 L42.2336464,15.5287676 Z M42.2336464,15.5287676 L42.2336464,15.5334786 L30.5709068,27.2010865 L30.1308089,26.7626715 L41.8062069,15.0924137 L42.2336464,15.5287676 Z" id="Fill-19" fill="#F2F2F2"></path>
            <path d="M30.4190518,26.9854252 L42.0246382,15.3812569 C42.4889788,14.9230397 43.2326263,14.9230397 43.6852559,15.3812569 L55.2969906,26.9854252 C55.7531335,27.4439352 55.7531335,28.1926006 55.2969906,28.6499395 L43.6852559,40.2549861 C43.2326263,40.7170096 42.4889788,40.7170096 42.0246382,40.2549861 L30.4190518,28.6499395 C29.9605667,28.1926006 29.9605667,27.4439352 30.4190518,26.9854252" id="Fill-21" fill="#035F4A"></path>
            <path d="M30.4190518,26.9854252 L42.0246382,15.3812569 C42.4889788,14.9230397 43.2326263,14.9230397 43.6852559,15.3812569 L55.2969906,26.9854252 C55.7531335,27.4439352 55.7531335,28.1926006 55.2969906,28.6499395 L43.6852559,40.2549861 C43.2326263,40.7170096 42.4889788,40.7170096 42.0246382,40.2549861 L30.4190518,28.6499395 C29.9605667,28.1926006 29.9605667,27.4439352 30.4190518,26.9854252" id="Fill-23" fill="#7BB284"></path>
            <path d="M0.43064877,26.7625361 L0.43064877,26.7625361 L1.3590604,25.846851 L0.43064877,26.7625361 Z M0.43064877,26.7625361 L0.86659602,27.2009462 L0.837748734,27.2286228 L0.810373249,27.2677823 L0.781525963,27.2981089 L0.759154598,27.3355018 L0.730307312,27.371717 L0.716766749,27.4141153 L0.693806664,27.4494472 L0.679971741,27.4891956 L0.659660897,27.5283551 L0.651418815,27.5669258 L0.639938773,27.6110907 L0.628458731,27.6443615 L0.622277169,27.6908819 L0.617567408,27.7391688 L0.617567408,27.7747951 L0.617567408,27.8177823 L0.617567408,27.8640082 L0.617567408,27.9064065 L0.622277169,27.9490992 L0.628458731,27.9879643 L0.639938773,28.0303626 L0.651418815,28.0668722 L0.659660897,28.1098593 L0.679971741,28.1446024 L0.693806664,28.1875895 L0.716766749,28.2273379 L0.730307312,28.266203 L0.759154598,28.3027126 L0.781525963,28.3362779 L0.810373249,28.3704321 L0.837748734,28.4092972 L0.86659602,28.4387405 L0.43064877,28.8712618 L0.379724479,28.813553 L0.328211468,28.7596719 L0.28935594,28.704613 L0.246968091,28.6421933 L0.203991522,28.5768293 L0.167785235,28.5132319 L0.138937949,28.4455124 L0.107441422,28.3813261 L0.0785941363,28.3136066 L0.0600494525,28.2435317 L0.0403273284,28.1734568 L0.0226657247,28.1010264 L0.0176616037,28.0350735 L0.0108913223,27.960582 L0,27.893157 L0,27.8177823 L0,27.7432909 L0.0108913223,27.677338 L0.0176616037,27.6034354 L0.0226657247,27.5345382 L0.0403273284,27.4632855 L0.0600494525,27.3964493 L0.0785941363,27.3293187 L0.107441422,27.2601271 L0.138937949,27.1912299 L0.167785235,27.1249826 L0.203991522,27.0596185 L0.246968091,26.9995543 L0.28935594,26.9341903 L0.328211468,26.8741261 L0.379724479,26.8217171 L0.43064877,26.7625361 Z M0.86659602,28.4387405 L0.86659602,28.4387405 L12.5314965,40.1079844 L12.1070293,40.5413891 L0.43064877,28.8712618 L0.86659602,28.4387405 Z M12.1070293,40.5413891 L12.5314965,40.1079844 L12.5688803,40.1371332 L12.6053809,40.1683431 L12.6395267,40.1945475 L12.6730837,40.2195743 L12.7131167,40.2443066 L12.7466737,40.2672724 L12.7808195,40.2858216 L12.8258566,40.3061375 L12.8685388,40.3196814 L12.9059225,40.3282199 L12.9447781,40.3399972 L12.984811,40.3508912 L13.0251383,40.3508912 L13.0698811,40.3647295 L13.1128576,40.3647295 L13.1552455,40.3647295 L13.1943954,40.3647295 L13.2391381,40.3647295 L13.285647,40.3508912 L13.3245025,40.3508912 L13.3668904,40.3399972 L13.4072177,40.3282199 L13.4460732,40.3196814 L13.4884611,40.3061375 L13.5346756,40.2858216 L13.5623455,40.2672724 L13.6023784,40.2443066 L13.6388791,40.2216353 L13.6762628,40.1945475 L13.7124691,40.1683431 L13.7416107,40.1371332 L13.7775227,40.1079844 L14.2137643,40.5413891 L14.1510656,40.5979201 L14.0945485,40.6429683 L14.0383257,40.6941995 L13.975627,40.7330646 L13.9129283,40.770752 L13.8455198,40.8072616 L13.7828211,40.8434768 L13.718945,40.8746867 L13.6497704,40.8944136 L13.5847168,40.9197348 L13.5105381,40.9374008 L13.4407748,40.9547723 L13.3668904,40.9621331 L13.2965383,40.9712605 L13.2229483,40.9774436 L13.1552455,40.9774436 L13.0863652,40.9774436 L13.0139527,40.9712605 L12.9394796,40.9621331 L12.8770752,40.9547723 L12.8031909,40.9374008 L12.7357824,40.9197348 L12.6616037,40.8944136 L12.5968445,40.8746867 L12.5288473,40.8434768 L12.4699753,40.8072616 L12.4013894,40.770752 L12.3425174,40.7330646 L12.2771694,40.6941995 L12.2144707,40.6429683 L12.1632521,40.5979201 L12.1070293,40.5413891 Z M14.2137643,40.5413891 L14.2137643,40.5413891 L15.0965501,39.6580915 L14.2137643,40.5413891 Z M14.2137643,40.5413891 L13.7775227,40.1079844 L25.4427175,28.4387405 L25.8795479,28.8712618 L14.2137643,40.5413891 Z M25.8795479,28.8712618 L25.4427175,28.4387405 L25.477452,28.4092972 L25.5054162,28.3704321 L25.5277876,28.3362779 L25.5563405,28.3027126 L25.5790062,28.266203 L25.5993171,28.2273379 L25.6190392,28.1875895 L25.6355234,28.1446024 L25.6467091,28.1098593 L25.6643707,28.0668722 L25.6693748,28.0303626 L25.686742,27.9879643 L25.6917461,27.9490992 L25.6917461,27.9064065 L25.6982221,27.8640082 L25.6982221,27.8177823 L25.6982221,27.7747951 L25.6917461,27.7391688 L25.6917461,27.6908819 L25.686742,27.6443615 L25.6693748,27.6110907 L25.6643707,27.5672202 L25.6467091,27.5283551 L25.6355234,27.4891956 L25.6190392,27.4494472 L25.5993171,27.4141153 L25.5790062,27.371717 L25.5563405,27.3355018 L25.5277876,27.2981089 L25.502767,27.2677823 L25.477452,27.2289172 L25.4427175,27.2009462 L25.8795479,26.7625361 L25.9298834,26.8217171 L25.9811021,26.8741261 L26.0264335,26.9341903 L26.0638173,26.9995543 L26.1050277,27.0596185 L26.1450606,27.1249826 L26.178912,27.1912299 L26.207465,27.2601271 L26.2304251,27.3293187 L26.2466149,27.3964493 L26.2701637,27.4632855 L26.2863535,27.5345382 L26.2981279,27.6037298 L26.3090192,27.677338 L26.3157895,27.7432909 L26.3157895,27.8177823 L26.3157895,27.893157 L26.3090192,27.9608765 L26.2981279,28.0353679 L26.2863535,28.1010264 L26.2701637,28.1734568 L26.2466149,28.2435317 L26.2304251,28.3139011 L26.207465,28.3813261 L26.178912,28.4455124 L26.1450606,28.5132319 L26.1050277,28.5768293 L26.0714706,28.6421933 L26.0264335,28.704613 L25.9749205,28.7596719 L25.9298834,28.813553 L25.8795479,28.8712618 Z M25.8795479,26.7625361 L25.8795479,26.7625361 L24.9225833,25.8071026 L25.8795479,26.7625361 Z M25.8795479,26.7625361 L25.4427175,27.2009462 L13.7775227,15.5334688 L14.2137643,15.0924089 L25.8795479,26.7625361 Z M14.2137643,15.0924089 L14.2137643,15.0924089 L15.0965501,15.9792396 L14.2137643,15.0924089 Z M14.2137643,15.0924089 L13.7775227,15.5334688 L13.7416107,15.4960759 L13.7124691,15.4707547 L13.6762628,15.436895 L13.6388791,15.4148125 L13.6023784,15.3909635 L13.5623455,15.3759474 L13.5346756,15.3529817 L13.4884611,15.3370823 L13.4460732,15.3220663 L13.4072177,15.3064613 L13.3668904,15.2996894 L13.3245025,15.2852622 L13.285647,15.2843789 L13.2391381,15.2752515 L13.1943954,15.2752515 L13.1552455,15.2752515 L13.1128576,15.2752515 L13.0698811,15.2752515 L13.0251383,15.2843789 L12.984811,15.2852622 L12.9447781,15.2996894 L12.9059225,15.3064613 L12.8685388,15.3220663 L12.8258566,15.3370823 L12.7808195,15.3529817 L12.7466737,15.3759474 L12.7131167,15.3909635 L12.6730837,15.4148125 L12.6395267,15.436895 L12.6053809,15.4681048 L12.5688803,15.4960759 L12.5314965,15.5334688 L12.1070293,15.0924089 L12.1632521,15.0376445 L12.2144707,14.9934796 L12.2771694,14.9472537 L12.3425174,14.9022055 L12.4013894,14.8656959 L12.4699753,14.8259475 L12.5288473,14.7979764 L12.5968445,14.7705942 L12.6616037,14.7446841 L12.7357824,14.7217184 L12.8031909,14.7005192 L12.8770752,14.6869753 L12.9394796,14.6725481 L13.0139527,14.6616541 L13.0863652,14.6616541 L13.1552455,14.6616541 L13.2229483,14.6616541 L13.2965383,14.6616541 L13.3668904,14.6725481 L13.4407748,14.6869753 L13.5105381,14.7005192 L13.5847168,14.7217184 L13.6497704,14.7446841 L13.718945,14.7705942 L13.7828211,14.7979764 L13.8455198,14.8259475 L13.9129283,14.8656959 L13.975627,14.9048554 L14.0383257,14.9472537 L14.0945485,14.9934796 L14.1510656,15.0376445 L14.2137643,15.0924089 Z M12.5314965,15.5334688 L12.5314965,15.5334688 L0.86659602,27.2009462 L0.43064877,26.7625361 L12.1070293,15.0924089 L12.5314965,15.5334688 Z" id="Fill-25" fill="#F2F2F2"></path>
            <path d="M0.720071516,26.9854252 L12.3272864,15.3812569 C12.7811507,14.9230397 13.527538,14.9230397 13.9893084,15.3812569 L25.5933022,26.9854252 C26.0553654,27.4439352 26.0553654,28.1926006 25.5933022,28.6499395 L13.9893084,40.2549861 C13.527538,40.7170096 12.7811507,40.7170096 12.3272864,40.2549861 L0.720071516,28.6499395 C0.261229294,28.1926006 0.261229294,27.4439352 0.720071516,26.9854252" id="Fill-27" fill="#035F4A"></path>
            <path d="M0.720071516,26.9854252 L12.3272864,15.3812569 C12.7811507,14.9230397 13.527538,14.9230397 13.9893084,15.3812569 L25.5933022,26.9854252 C26.0553654,27.4439352 26.0553654,28.1926006 25.5933022,28.6499395 L13.9893084,40.2549861 C13.527538,40.7170096 12.7811507,40.7170096 12.3272864,40.2549861 L0.720071516,28.6499395 C0.261229294,28.1926006 0.261229294,27.4439352 0.720071516,26.9854252" id="Fill-29" fill="#7BB284"></path>
        </g>
    </g>
</svg>